<!--?xml version="1.0" standalone="no"?-->
              <svg id="sw-js-blob-svg" viewBox="0 0 100 100" xmlns="http://www.w3.org/2000/svg" version="1.1">
                    <defs> 
                        <linearGradient id="sw-gradient" x1="0" x2="1" y1="1" y2="0">
                            <stop id="stop1" stop-color="rgba(210.781, 196.999, 190.476, 1)" offset="0%"></stop>
                            <stop id="stop2" stop-color="rgba(255, 250.078, 241.953, 1)" offset="100%"></stop>
                        </linearGradient>
                    </defs>
                <path fill="url(#sw-gradient)" d="M18.5,-32.5C24.1,-28.7,28.9,-24.1,31,-18.5C33.1,-13,32.6,-6.5,32.4,-0.1C32.1,6.2,32.2,12.4,29.5,17C26.8,21.7,21.5,24.8,16.1,28.6C10.7,32.4,5.4,36.9,-0.5,37.7C-6.3,38.5,-12.6,35.7,-19.6,32.8C-26.6,30,-34.3,27.1,-37.7,21.6C-41.1,16.2,-40.2,8.1,-37.8,1.4C-35.4,-5.3,-31.5,-10.6,-27.9,-15.8C-24.4,-21,-21.2,-26.2,-16.6,-30.5C-12,-34.8,-6,-38.4,0.2,-38.7C6.4,-39.1,12.9,-36.2,18.5,-32.5Z" width="100%" height="100%" transform="translate(50 50)" stroke-width="0" style="transition: all 0.3s ease 0s;"></path>
              </svg>