<!--?xml version="1.0" standalone="no"?-->
              <svg id="sw-js-blob-svg" viewBox="0 0 100 100" xmlns="http://www.w3.org/2000/svg" version="1.1">
                    <defs> 
                        <linearGradient id="sw-gradient" x1="0" x2="1" y1="1" y2="0">
                            <stop id="stop1" stop-color="rgba(128.732, 201.673, 165.846, 1)" offset="0%"></stop>
                            <stop id="stop2" stop-color="rgba(255, 250.078, 241.953, 1)" offset="100%"></stop>
                        </linearGradient>
                    </defs>
                <path fill="url(#sw-gradient)" d="M19.3,-34C25.3,-30,30.6,-25.4,34.3,-19.6C38,-13.8,40.1,-6.9,39.7,-0.2C39.4,6.5,36.6,13,32.1,17.3C27.5,21.6,21.2,23.8,15.6,26.8C10,29.8,5,33.7,-0.7,34.8C-6.4,36,-12.7,34.5,-17.5,31C-22.4,27.6,-25.7,22.2,-30.8,16.7C-36,11.2,-42.9,5.6,-44.1,-0.7C-45.3,-6.9,-40.6,-13.8,-35.8,-19.9C-31,-26,-26.1,-31.3,-20.1,-35.2C-14.1,-39.1,-7,-41.7,-0.2,-41.4C6.7,-41.1,13.4,-37.9,19.3,-34Z" width="100%" height="100%" transform="translate(50 50)" stroke-width="0" style="transition: all 0.3s ease 0s;"></path>
              </svg>